<svg xmlns="http://www.w3.org/2000/svg" xmlns:xlink="http://www.w3.org/1999/xlink" width="1776.392" height="477.461" viewBox="0 0 1776.392 477.461">
    <defs>
        <linearGradient id="linear-gradient" x1="1.05" y1="0.5" x2="-0.208" y2="0.5" gradientUnits="objectBoundingBox">
            <stop offset="0" stop-color="#feb714"/>
            <stop offset="1" stop-color="#f9c52b" stop-opacity="0"/>
        </linearGradient>
    </defs>
    <path id="Контур_64" data-name="Контур 64" d="M227.831.243A238.623,238.623,0,0,1,445.947,120.125c32.868,57.309,93.008,93.514,159.074,93.514,65.232,0,126.02-34.593,157.92-91.492A238.633,238.633,0,0,1,971.3,0h663.374A38.948,38.948,0,0,1,1672.4,29.249l102.747,399.565a38.948,38.948,0,0,1-37.721,48.648H971.3a238.636,238.636,0,0,1-208.36-122.144c-31.9-56.9-92.691-91.5-157.925-91.5s-126.024,34.6-157.925,91.5A238.636,238.636,0,0,1,238.73,477.461C104.967,477.461-3.1,367.446.068,232.963,2.919,112.108,107.063,5.615,227.831.243" transform="translate(1776.392 477.461) rotate(180)" fill="url(#linear-gradient)"/>
</svg>
