<?xml version="1.0" encoding="UTF-8"?>
<svg xmlns="http://www.w3.org/2000/svg" xmlns:xlink="http://www.w3.org/1999/xlink" version="1.1" viewBox="0 0 1920 1080">
    <defs>
        <style>
            .cls-1 {
            fill: #FF5B35;
            }

            .cls-2 {
            display: none;
            }

            .cls-3 {
            clip-path: url(#clippath);
            }
        </style>
        <clipPath id="clippath">
            <rect class="cls-1" width="1920" height="1080"/>
        </clipPath>
    </defs>
    <!-- Generator: Adobe Illustrator 28.6.0, SVG Export Plug-In . SVG Version: 1.2.0 Build 709)  -->
    <g>
        <g id="Layer_1">
            <g id="EL_x5F_NB_x5F_Hero_x5F_Image.psd" class="cls-2">
                <g class="cls-3">
                    <image id="Vector_Smart_Object__x2B__NORM-LI_x5F_240722_x5F_240709_x5F_EXT_x5F_Hero_x5F_06_x5F_VF_x5F_00_x28_1_x29_" width="3840" height="2160" transform="scale(.5)" xlink:href="evolution labs hero mask-1.png"/>
                </g>
            </g>
            <path  fill="#FF5B35" d="M-.5-.5C155.5-.5,235.5-.5,458.5.5s348,196,512,196S1138.5,18.5,1479.5,1.5c198.9-9.9,353,99,441,212-1-112,0-121-1-213C1902.5.5,370.5-1.5.5.5Q.5-.5-.5-.5Z"/>
            <path  fill="#FF5B35" d="M0,1080.3c156,0,236,0,459-1s348-196,512-196,168,178,509,195c198.9,9.9,353-99,441-212-1,112,0,121-1,213-17,0-1549,2-1919,0q0,1-1,1Z"/>
        </g>
    </g>
</svg>
