<svg xmlns="http://www.w3.org/2000/svg" xmlns:xlink="http://www.w3.org/1999/xlink" width="109.719" height="48.551" viewBox="0 0 109.719 48.551">
  <defs>
    <clipPath id="clip-path">
      <rect id="Прямоугольник_112" data-name="Прямоугольник 112" width="109.719" height="48.551" fill="#fff"/>
    </clipPath>
  </defs>
  <g id="Сгруппировать_187" data-name="Сгруппировать 187" clip-path="url(#clip-path)">
    <path id="Контур_99" data-name="Контур 99" d="M21.991.1c-.6.482-1.254.966-1.833,1.5a22.434,22.434,0,0,0-4.827,6.613,31.361,31.361,0,0,0-3.283,11.347,42.6,42.6,0,0,0-.221,6.566,37.566,37.566,0,0,0,.9,6.953A28.419,28.419,0,0,0,17.26,43.551a1.662,1.662,0,0,1,.193.294L15.738,45.97h-.146l-.313-.294A19.09,19.09,0,0,1,10.741,39.4,32.931,32.931,0,0,1,7.7,27.33a42.179,42.179,0,0,1,0-6.784A32.666,32.666,0,0,1,9,13.858a25.95,25.95,0,0,1,3.576-7.846,17.606,17.606,0,0,1,3.476-3.739l.435-.313A12.258,12.258,0,0,0,14.459.1L13.952.46A14.6,14.6,0,0,0,11.539,2.7a26.684,26.684,0,0,0-5.577,9.464A34.751,34.751,0,0,0,4.2,21.825a40.848,40.848,0,0,0,.6,10.211,29.674,29.674,0,0,0,3.763,9.991,22.456,22.456,0,0,0,3.863,4.83,16.741,16.741,0,0,0,2.027,1.521l.338-.221a15.8,15.8,0,0,0,2.414-2.147,25.525,25.525,0,0,0,4.95-7.77,35.058,35.058,0,0,0,2.534-12.649,37.972,37.972,0,0,0,0-4.081,29.841,29.841,0,0,0-.462-4.128,33.855,33.855,0,0,0-1.25-5.069.891.891,0,0,1,0-.435A26.192,26.192,0,0,1,24.672,7.9l.242-.386L25.807,9.2A33.494,33.494,0,0,1,28.8,21.271a41.258,41.258,0,0,1,0,6.71,36.835,36.835,0,0,1-.893,5.385,29.223,29.223,0,0,1-3.79,8.787v.168l1.061,1.617-1.811,2.029-1.328-1.184-2.245,1.906.338.221a11.228,11.228,0,0,0,1.882,1.472c.1,0,.193,0,.293,0a16.485,16.485,0,0,0,3.018-2.9,24.976,24.976,0,0,0,4.153-6.638,33.484,33.484,0,0,0,2.728-12.433,44.93,44.93,0,0,0-.221-7,36.151,36.151,0,0,0-1.134-5.77A28.549,28.549,0,0,0,26.7,4.927l-.168-.193,1.714-2.1c.338.313.653.555.941.846a20.143,20.143,0,0,1,4.031,5.789,33.05,33.05,0,0,1,3.09,12.554,39.262,39.262,0,0,1,0,6.083,36.209,36.209,0,0,1-.893,5.53,29.484,29.484,0,0,1-3.331,8.3A16.737,16.737,0,0,1,28,46.4l-.508.36,2.149,1.793.435-.294a20.214,20.214,0,0,0,3.043-2.9,26.367,26.367,0,0,0,4.827-8.473A34.784,34.784,0,0,0,39.9,26.123a42.378,42.378,0,0,0-.653-9.415,30.422,30.422,0,0,0-3.81-10.116,21.56,21.56,0,0,0-4.564-5.5L29.62.1l-.386.265A18.189,18.189,0,0,0,25.95,3.478a27.816,27.816,0,0,0-4.974,9.271,36.806,36.806,0,0,0-1.689,10.114,41.2,41.2,0,0,0,.46,7.7,35.36,35.36,0,0,0,1.3,5.48.755.755,0,0,1,0,.6,28.6,28.6,0,0,1-1.689,3.934,2.235,2.235,0,0,1-.221.386q0-.108,0-.219c-.506-1.063-1.086-2.1-1.521-3.188a34.513,34.513,0,0,1-2.414-11.249,41.632,41.632,0,0,1,.146-6.011,36.267,36.267,0,0,1,1.208-6.42,28.632,28.632,0,0,1,3.235-7.241.363.363,0,0,0,0-.483L18.926,4.83l1.739-2.317,1.3,1.158,2.149-1.787A12.968,12.968,0,0,0,21.99.1m8.257,0L30.9.219a11.172,11.172,0,0,1,5.408,2.7A18.1,18.1,0,0,1,40.2,7.9a29.183,29.183,0,0,1,3.066,8.5,38.151,38.151,0,0,1,.745,9.364A35.4,35.4,0,0,1,42.076,36.5a24.319,24.319,0,0,1-3.694,7.049,13.987,13.987,0,0,1-4.611,3.885,9.23,9.23,0,0,1-3.548,1.045,8.031,8.031,0,0,1-2.922-.366l-1.254-.433a.466.466,0,0,0-.435,0,10.272,10.272,0,0,1-3.065.7h-.386a9.671,9.671,0,0,1-3.5-.651l-.482-.242a13.552,13.552,0,0,1-2.415.748,7.534,7.534,0,0,1-3.716-.121,12.065,12.065,0,0,1-5.505-3.5,22.562,22.562,0,0,1-4.031-6.47A32.031,32.031,0,0,1,.531,31.167,35.016,35.016,0,0,1,0,26.339a2.921,2.921,0,0,0,0-.411V22.695a2.557,2.557,0,0,0,0-.411,36.856,36.856,0,0,1,.531-4.829A31.035,31.035,0,0,1,3.163,9.172,19,19,0,0,1,7.7,2.942,10.693,10.693,0,0,1,13.108.219h1.979a9.031,9.031,0,0,1,2.872.725.48.48,0,0,0,.483,0l1.884-.6A11.053,11.053,0,0,1,21.483.1h1.184a9.3,9.3,0,0,1,2.9.725.683.683,0,0,0,.531,0A8.755,8.755,0,0,1,28.509.148L29.234,0Z" transform="translate(0 0)" fill="#fff"/>
    <path id="Контур_100" data-name="Контур 100" d="M85.209,30.533a3.556,3.556,0,0,0-.168.386c-.555,1.569-1.089,3.138-1.642,4.827-.168.46,0,.435-.628.435H64.544V35.1l.966-.193a1.979,1.979,0,0,0,1.76-1.979,11.45,11.45,0,0,0,0-1.569V10.376a2.076,2.076,0,0,0-1.787-2l-.989-.193V7.068H76.857V8.179a3.167,3.167,0,0,0-1.426.219,1.9,1.9,0,0,0-1.758,1.932,12.718,12.718,0,0,0,0,1.376V29.883a14.694,14.694,0,0,0,.214,2.294,1.6,1.6,0,0,0,1.328,1.375,5.142,5.142,0,0,0,1.063.192,12.252,12.252,0,0,0,3.523,0,5.121,5.121,0,0,0,3.768-2.872l.241-.483h1.4Z" transform="translate(24.51 2.686)" fill="#fff"/>
    <path id="Контур_101" data-name="Контур 101" d="M70.264,30.412l-1.979,5.625H49.574V34.975l1.039-.193A1.979,1.979,0,0,0,52.3,32.851V11.894a11.428,11.428,0,0,0,0-1.568,2.026,2.026,0,0,0-1.689-1.833l-1.039-.168V7.069H61.935V8.2H60.293A1.81,1.81,0,0,0,58.82,9.821a13.007,13.007,0,0,0,0,1.352V29.688a12.759,12.759,0,0,0,.217,2.149,1.665,1.665,0,0,0,1.377,1.5l1.013.193a13.523,13.523,0,0,0,3.549,0,5.144,5.144,0,0,0,3.739-2.873,1.322,1.322,0,0,0,.12-.266.292.292,0,0,1,.316-.193h1.232" transform="translate(18.84 2.686)" fill="#fff"/>
    <path id="Контур_102" data-name="Контур 102" d="M34.722,30.461h1.4l.221.628a4.368,4.368,0,0,0,3.16,2.8,4.163,4.163,0,0,0,2.245,0A3.037,3.037,0,0,0,43.63,32.15a7.208,7.208,0,0,0,.506-2.414V10.206a1.832,1.832,0,0,0-1.544-1.689l-1.111-.193h-.455V7.068H53.383V8.155h-.777a2.221,2.221,0,0,0-2.052,2.375V28.023a12.731,12.731,0,0,1-.454,3.693,6.565,6.565,0,0,1-5.6,4.829,11.242,11.242,0,0,1-4.827-.192,6.035,6.035,0,0,1-4.324-4.006,9.276,9.276,0,0,1-.5-2.077" transform="translate(13.196 2.686)" fill="#fff"/>
  </g>
</svg>
