<?xml version="1.0" encoding="UTF-8"?>
<svg id="Layer_1" data-name="Layer 1" xmlns="http://www.w3.org/2000/svg" version="1.1" viewBox="0 0 532.85 165.66">
  <defs>
    <style>
      .cls-1 {
        fill: #b8e0cf;
      }

      .cls-1, .cls-2 {
        stroke-width: 0px;
      }

      .cls-2 {
        fill: #fff;
      }
    </style>
  </defs>
  <g>
    <path class="cls-2" d="M252.08,56.01h10.09l18.65,33.94h.61l-.61-5.2v-28.74h7.03v42.8h-10.09l-18.65-33.94h-.61l.61,5.2v28.74h-7.03v-42.8Z"/>
    <path class="cls-2" d="M307.11,67.02c9.11,0,16.2,7.09,16.2,16.2s-7.09,16.2-16.2,16.2-16.2-7.09-16.2-16.2,7.09-16.2,16.2-16.2ZM307.11,93.62c5.56,0,9.48-4.04,9.48-10.39s-3.91-10.39-9.48-10.39-9.48,4.04-9.48,10.39,3.91,10.39,9.48,10.39Z"/>
    <path class="cls-2" d="M328.82,67.63h6.42v4.59h.31c.49-.92,1.16-1.71,1.96-2.45,1.41-1.22,3.49-2.45,6.6-2.45h3.67v6.11h-3.97c-4.89,0-8.56,3.36-8.56,8.56v16.82h-6.42v-31.18Z"/>
    <path class="cls-2" d="M350.22,67.63h3.67v-6.73h6.42v6.73h9.48v5.81h-9.48v19.57h9.78v5.81h-16.2v-25.38h-3.67v-5.81Z"/>
    <path class="cls-2" d="M375.59,56.01h6.42v15.9h.31c.55-.92,1.35-1.71,2.26-2.45,1.65-1.22,3.91-2.45,7.52-2.45,7.64,0,12.23,4.52,12.23,13.15v18.65h-6.42v-18.04c0-5.56-2.45-7.95-7.34-7.95s-8.56,3.67-8.56,9.17v16.82h-6.42v-42.8Z"/>
    <path class="cls-2" d="M252.08,108.16h21.1c8.25,0,13.15,4.89,13.15,11.01,0,3.67-1.59,5.93-3.24,7.22-.92.73-2.02,1.28-3.18,1.65v.31c1.47.31,2.81.86,3.97,1.65,1.96,1.41,3.97,4.04,3.97,8.74,0,7.03-5.2,12.23-14.98,12.23h-20.79v-42.8ZM272.87,125.59c3.97,0,6.11-2.14,6.11-5.56,0-3-2.14-5.14-6.11-5.14h-13.76v10.7h13.76ZM272.57,144.24c5.56,0,7.95-2.45,7.95-6.11s-2.38-6.11-7.95-6.11h-13.45v12.23h13.45Z"/>
    <path class="cls-2" d="M308.64,119.17c8.87,0,15.9,7.09,15.9,16.2v2.14h-25.38c.98,5.2,4.89,8.25,9.48,8.25,3.18,0,5.44-.98,6.85-2.14.8-.61,1.47-1.35,2.02-2.14h6.73c-.79,1.9-1.83,3.61-3.24,5.07-2.45,2.45-6.18,5.01-12.35,5.01-8.87,0-15.9-7.09-15.9-16.2s7.03-16.2,15.9-16.2ZM317.81,132.32c-.67-3.67-3.61-7.34-9.17-7.34-4.28,0-8.19,2.69-9.17,7.34h18.34Z"/>
    <path class="cls-2" d="M327.6,119.78h3.67v-6.73h6.42v6.73h9.48v5.81h-9.48v19.57h9.78v5.81h-16.2v-25.38h-3.67v-5.81Z"/>
    <path class="cls-2" d="M352.97,108.16h6.42v15.9h.31c.55-.92,1.35-1.71,2.26-2.45,1.65-1.22,3.91-2.45,7.52-2.45,7.64,0,12.23,4.52,12.23,13.15v18.65h-6.42v-18.04c0-5.56-2.45-7.95-7.34-7.95s-8.56,3.67-8.56,9.17v16.82h-6.42v-42.8Z"/>
    <path class="cls-2" d="M402.8,119.17c8.87,0,15.9,7.09,15.9,16.2v2.14h-25.38c.98,5.2,4.89,8.25,9.48,8.25,3.18,0,5.44-.98,6.85-2.14.8-.61,1.47-1.35,2.02-2.14h6.73c-.79,1.9-1.83,3.61-3.24,5.07-2.45,2.45-6.18,5.01-12.35,5.01-8.87,0-15.9-7.09-15.9-16.2s7.03-16.2,15.9-16.2ZM411.98,132.32c-.67-3.67-3.61-7.34-9.17-7.34-4.28,0-8.19,2.69-9.17,7.34h18.34Z"/>
    <path class="cls-2" d="M429.09,141.18c.31.86.86,1.65,1.53,2.32,1.16,1.16,3,2.26,6.11,2.26,4.89,0,6.42-1.83,6.42-3.67,0-2.63-4.89-3.24-9.78-4.34-4.89-1.1-9.78-3.42-9.78-9.42,0-4.59,4.59-9.17,12.23-9.17,6.11,0,9.54,2.45,11.43,4.89,1.1,1.41,1.9,3.06,2.32,4.89h-6.73c-.31-.73-.73-1.41-1.35-1.96-1.04-.98-2.81-2.02-5.69-2.02-3.91,0-5.5,1.65-5.5,3.42,0,2.63,4.89,3.18,9.78,4.28,4.89,1.1,9.78,3.42,9.78,9.42,0,4.89-4.59,9.48-13.15,9.48-6.48,0-10.03-2.57-12.17-5.2-1.22-1.53-2.08-3.24-2.51-5.2h7.03Z"/>
    <path class="cls-2" d="M468.23,119.17c3.18,0,5.63,1.16,7.28,2.32.98.67,1.83,1.47,2.51,2.26h.31v-15.59h6.42v42.8h-6.42v-3.97h-.31c-.67.86-1.53,1.65-2.51,2.32-1.65,1.16-4.1,2.26-7.28,2.26-8.25,0-14.67-6.42-14.67-16.2s6.42-16.2,14.67-16.2ZM469.45,145.77c5.2,0,8.87-3.61,8.87-10.39s-3.67-10.39-8.87-10.39c-5.56,0-9.17,3.61-9.17,10.39s3.61,10.39,9.17,10.39Z"/>
    <path class="cls-2" d="M504.91,119.17c3.18,0,5.63,1.16,7.28,2.32.98.67,1.83,1.47,2.51,2.26h.31v-3.97h6.42v31.18h-6.42v-4.28h-.31c-.67.92-1.53,1.71-2.51,2.45-1.65,1.22-4.1,2.45-7.28,2.45-8.25,0-14.67-6.42-14.67-16.2s6.42-16.2,14.67-16.2ZM506.14,145.77c5.2,0,8.87-3.61,8.87-10.39s-3.67-10.39-8.87-10.39c-5.56,0-9.17,3.61-9.17,10.39s3.61,10.39,9.17,10.39Z"/>
  </g>
  <g>
    <g>
      <path class="cls-1" d="M243.87,14.86h2.81c.46,0,.83.37.83.83v20.76c0,.77.62,1.39,1.39,1.39h11.6c.46,0,.83.37.83.83v2.62c0,.46-.37.83-.83.83h-16.64c-.46,0-.83-.37-.83-.83V15.7c0-.46.37-.83.83-.83Z"/>
      <path class="cls-1" d="M292.02,15.7c0-.46.37-.83.83-.83h12.6c5.26,0,8.37,3.12,8.37,7.01,0,2.34-1.01,3.78-2.06,4.6-.58.47-1.29.82-2.03,1.05v.19c.93.19,1.79.55,2.53,1.05,1.25.9,2.53,2.57,2.53,5.57,0,4.48-3.31,7.79-9.54,7.79h-12.41c-.46,0-.83-.37-.83-.83V15.7ZM305.26,25.96c2.53,0,3.9-1.36,3.9-3.54,0-1.91-1.36-3.27-3.9-3.27h-7.37c-.77,0-1.39.62-1.39,1.39v4.03c0,.77.62,1.39,1.39,1.39h7.37ZM305.07,37.84c3.54,0,5.06-1.56,5.06-3.9s-1.52-3.9-5.06-3.9h-7.18c-.77,0-1.39.62-1.39,1.39v5.01c0,.77.62,1.39,1.39,1.39h7.18Z"/>
      <path class="cls-1" d="M321.71,33.95c.37,0,.69.24.8.6.22.69.55,1.31.97,1.86.93,1.21,2.61,2.42,5.69,2.42,4.32,0,6.04-1.75,6.04-4.09,0-2.14-2.3-3.16-5.18-3.93-4.79-1.25-11.18-2.53-11.18-8.53,0-4.25,3.9-8.18,10.13-8.18,4.75,0,7.48,2.03,8.92,4.01.64.87,1.13,1.83,1.48,2.87.18.54-.22,1.1-.79,1.1h-2.94c-.35,0-.67-.21-.79-.53-.19-.51-.45-.98-.81-1.41-.82-.97-2.3-1.95-5.06-1.95-3.7,0-5.45,1.75-5.45,3.9s2.3,3.19,5.18,3.97c4.79,1.4,11.18,2.57,11.18,8.49,0,4.48-3.9,8.37-10.71,8.37-5.14,0-8.06-2.22-9.62-4.48-.73-1.01-1.27-2.15-1.62-3.41-.15-.54.25-1.07.8-1.07h2.98Z"/>
      <path class="cls-1" d="M271.63,14.86h9.64c.43,0,.81.29.92.7l6.71,25.37c.16.6-.29,1.19-.92,1.19h-2.72c-.43,0-.8-.29-.91-.7l-1.43-5.37c-.15-.55-.65-.94-1.22-.94h-10.59c-.58,0-1.08.39-1.22.96l-1.33,5.34c-.11.42-.48.72-.92.72h-2.52c-.62,0-1.07-.58-.92-1.18l6.52-25.37c.11-.42.48-.71.92-.71ZM281.15,29.25l-2.41-9.16c-.15-.55-.65-.94-1.22-.94h-2.33c-.58,0-1.08.39-1.22.96l-2.29,9.16c-.2.8.4,1.57,1.22,1.57h7.03c.83,0,1.43-.78,1.22-1.58Z"/>
    </g>
    <g>
      <path class="cls-1" d="M45.16,31.9l5.42,21.31c.16.62.71,1.05,1.35,1.05h2.11c.64,0,1.2-.44,1.35-1.06l5.23-21.29c.09-.37.43-.64.81-.64h2.76c.54,0,.94.51.81,1.04l-6.4,25.6c-.09.37-.43.63-.81.63h-9.8c-.38,0-.71-.26-.81-.63l-6.58-25.6c-.14-.53.26-1.04.81-1.04h2.95c.38,0,.71.26.81.63Z"/>
      <path class="cls-1" d="M80.94,30.49c8.37,0,14.61,6.23,14.61,14.41s-6.23,14.41-14.61,14.41-14.61-6.23-14.61-14.41,6.23-14.41,14.61-14.41ZM80.94,55.03c5.8,0,9.93-4.09,9.93-10.13s-4.13-10.13-9.93-10.13-9.93,4.09-9.93,10.13,4.09,10.13,9.93,10.13Z"/>
      <path class="cls-1" d="M100.25,31.27h2.81c.46,0,.83.37.83.83v20.76c0,.77.62,1.39,1.39,1.39h11.6c.46,0,.83.37.83.83v2.62c0,.46-.37.83-.83.83h-16.64c-.46,0-.83-.37-.83-.83v-25.6c0-.46.37-.83.83-.83Z"/>
      <path class="cls-1" d="M121.27,31.27h2.81c.46,0,.83.37.83.83v15.92c0,4.52,2.53,7.01,6.62,7.01s6.62-2.49,6.62-7.01v-15.92c0-.46.37-.83.83-.83h2.81c.46,0,.83.37.83.83v15.92c0,7.01-4.28,11.3-11.1,11.3s-11.1-4.28-11.1-11.3v-15.92c0-.46.37-.83.83-.83Z"/>
      <path class="cls-1" d="M147.62,31.27h20.73c.46,0,.83.37.83.83v2.62c0,.46-.37.83-.83.83h-6.73c-.77,0-1.39.62-1.39,1.39v20.76c0,.46-.37.83-.83.83h-2.81c-.46,0-.83-.37-.83-.83v-20.76c0-.77-.62-1.39-1.39-1.39h-6.73c-.46,0-.83-.37-.83-.83v-2.62c0-.46.37-.83.83-.83Z"/>
      <path class="cls-1" d="M174.41,31.27h2.81c.46,0,.83.37.83.83v25.6c0,.46-.37.83-.83.83h-2.81c-.46,0-.83-.37-.83-.83v-25.6c0-.46.37-.83.83-.83Z"/>
      <path class="cls-1" d="M196.81,30.49c8.37,0,14.61,6.23,14.61,14.41s-6.23,14.41-14.61,14.41-14.61-6.23-14.61-14.41,6.23-14.41,14.61-14.41ZM196.81,55.03c5.8,0,9.93-4.09,9.93-10.13s-4.13-10.13-9.93-10.13-9.93,4.09-9.93,10.13,4.09,10.13,9.93,10.13Z"/>
      <path class="cls-1" d="M216.2,31.27h5.37c.24,0,.46.13.58.34l10.45,18.42c.36.63,1.33.31,1.24-.41h0s0-.05,0-.08v-17.6c0-.37.3-.67.67-.67h3.15c.37,0,.67.3.67.67v25.93c0,.37-.3.67-.67.67h-5.37c-.24,0-.46-.13-.58-.34l-10.45-18.42c-.36-.63-1.33-.32-1.24.41h0s0,.05,0,.08v17.6c0,.37-.3.67-.67.67h-3.15c-.37,0-.67-.3-.67-.67v-25.93c0-.37.3-.67.67-.67Z"/>
      <path class="cls-1" d="M25.24,54.25c-4.79,0-8.34-3.08-9.19-7.83h22c.49,0,.9-.37.95-.86s.06-.95.06-1.43c0-8.18-5.9-14.41-13.82-14.41s-13.82,6.23-13.82,14.41,5.9,14.41,13.82,14.41c4.84,0,8.92-2.33,11.37-6,.42-.63-.02-1.48-.78-1.48h-3.05c-.27,0-.53.12-.71.33-1.67,1.82-4.04,2.87-6.82,2.87ZM25.24,33.99c4.76,0,8.33,3.08,9.19,7.83h-18.39c.86-4.75,4.4-7.83,9.19-7.83Z"/>
    </g>
  </g>
</svg>