<svg id="Сгруппировать_33" data-name="Сгруппировать 33" xmlns="http://www.w3.org/2000/svg" xmlns:xlink="http://www.w3.org/1999/xlink" width="263.728" height="48.552" viewBox="0 0 263.728 48.552">
    <defs>
        <clipPath id="clip-path">
            <rect id="Прямоугольник_15" data-name="Прямоугольник 15" width="263.728" height="48.551" fill="#fff"/>
        </clipPath>
    </defs>
    <g id="Сгруппировать_32" data-name="Сгруппировать 32" transform="translate(0 0)" clip-path="url(#clip-path)">
        <path id="Контур_70" data-name="Контур 70" d="M88.972,13.678a.174.174,0,0,0-.07.126l.035.057,5.165,5.6c5.194,5.63,8.8,8.291,10.262,8.826s2.881,1.813,5.194,1.731c.2,0,1.852.322,1.936.352.117.042,2.657.778,2.628.863a30.083,30.083,0,0,1-3.049-.483c-2.1-.147-5.214-1.725-9.533-3.295-3.533-1.284-6.82-3.969-10.6-8.285l-3.912-4.5" transform="translate(72.355 11.373)" fill="#fff"/>
        <path id="Контур_71" data-name="Контур 71" d="M93.768,9.112a7.986,7.986,0,0,0-4.738-1.135c-.8,0-2.769.077-3.059.077-.125,0-1.76-.077-2.923-.077-.286,0-.412.049-.412.2a.183.183,0,0,0,.2.161,4.421,4.421,0,0,1,.879.077c.855.176,1.057.6,1.115,1.471.049.828.049,1.559.049,5.6v4.557c0,2.482,0,4.527-.128,5.613-.1.751-.236,1.326-.751,1.425a3.7,3.7,0,0,1-.778.1c-.152,0-.211.079-.211.156,0,.161.134.211.414.211.778,0,2.41-.077,2.432-.077.134,0,1.76.077,3.19.077.28,0,.414-.077.414-.211,0-.077-.049-.156-.212-.156a10.35,10.35,0,0,1-1.163-.1c-.777-.1-.93-.672-1.007-1.425-.128-1.086-.128-3.132-.128-5.613v-.623c0-.126.049-.205.178-.205l3.189.049a.41.41,0,0,1,.335.156l1.956-.982a7.848,7.848,0,0,0,2.938-5.8,4.554,4.554,0,0,0-1.78-3.524M91.8,17.965a3.322,3.322,0,0,1-1.936.5,7.211,7.211,0,0,1-2.722-.414.351.351,0,0,1-.176-.315V9.275a.318.318,0,0,1,.2-.315A8.026,8.026,0,0,1,88.908,8.8c2.769,0,4.472,1.936,4.472,5.179A4.719,4.719,0,0,1,91.8,17.967Z" transform="translate(68.708 6.614)" fill="#fff"/>
        <path id="Контур_72" data-name="Контур 72" d="M90.292,18.552C99.867,29.1,113.661,32.017,129.56,25.2l.015-.013a7.907,7.907,0,0,0,.879-.4l.106-.048a6.8,6.8,0,0,0,1.2-.758.123.123,0,0,0,.013-.176.129.129,0,0,0-.075-.042,1.1,1.1,0,0,0-.441.134c-15.875,6.8-29.77,3.793-39.352-6.751" transform="translate(75.073 14.259)" fill="#fff"/>
        <path id="Контур_73" data-name="Контур 73" d="M100.267,20.066c0,2.489,0,4.527.126,5.621.077.749.238,1.319,1.011,1.425.363.048.93.1,1.17.1.154,0,.2.084.2.163,0,.126-.126.2-.414.2-1.421,0-3.057-.077-3.181-.077s-1.76.077-2.537.077c-.289,0-.414-.049-.414-.2,0-.079.049-.163.2-.163a4.132,4.132,0,0,0,.778-.1c.518-.106.645-.674.749-1.425.134-1.093.134-3.132.134-5.621V15.51c0-4.036,0-4.767-.055-5.593-.049-.879-.31-1.317-.881-1.45a3.325,3.325,0,0,0-.806-.1c-.106,0-.2-.057-.2-.156,0-.159.126-.211.412-.211.855,0,2.482.077,2.615.077S100.937,8,101.716,8c.28,0,.414.049.414.211,0,.1-.1.156-.211.156a3.444,3.444,0,0,0-.643.077c-.705.126-.9.57-.961,1.472-.049.828-.049,1.557-.049,5.593Z" transform="translate(79.943 6.653)" fill="#fff"/>
        <path id="Контур_74" data-name="Контур 74" d="M107.91,15.511c0-4.036,0-4.765-.048-5.593-.057-.879-.26-1.289-1.115-1.472a4.421,4.421,0,0,0-.879-.077c-.1,0-.2-.057-.2-.156,0-.159.126-.209.414-.209,1.163,0,2.8.077,2.923.077.315,0,1.936-.077,3.5-.077,2.566,0,7.3-.231,10.382,2.95a9.242,9.242,0,0,1,2.509,6.575,10.6,10.6,0,0,1-2.8,7.3,10.277,10.277,0,0,1-7.842,2.972c-2.223,0-5.491-.308-5.749-.308-.126,0-1.76.077-2.537.077-.28,0-.414-.049-.414-.2,0-.079.057-.163.211-.163a4.457,4.457,0,0,0,.778-.1c.511-.106.643-.674.749-1.425.126-1.093.126-3.134.126-5.621Zm2.181,2.8c0,2.742.022,5.124.049,5.615a5.67,5.67,0,0,0,.286,1.971c.337.491,1.348,1.035,4.4,1.035A8.7,8.7,0,0,0,121,24.518a9.1,9.1,0,0,0,2.068-6.183,9.263,9.263,0,0,0-2.489-6.525,10.638,10.638,0,0,0-8.461-2.93,7.23,7.23,0,0,0-1.683.176.475.475,0,0,0-.315.52c-.02.879-.02,3.52-.02,5.516Z" transform="translate(87.855 6.652)" fill="#fff"/>
        <path id="Контур_75" data-name="Контур 75" d="M136.953,21.14c0-2.1-.125-2.375-1.163-2.665a5.08,5.08,0,0,0-.881-.077c-.1,0-.2-.057-.2-.156,0-.154.125-.211.414-.211,1.163,0,2.8.077,2.923.077s1.76-.077,2.537-.077c.288,0,.414.057.414.211,0,.1-.1.156-.2.156a4.242,4.242,0,0,0-.645.077c-.7.126-.912.57-.961,1.472-.048.835-.048,1.606-.048,2.7v2.894c0,1.163-.029,1.22-.344,1.408a14.106,14.106,0,0,1-14.005-1.6,10.117,10.117,0,0,1-3.077-7.381,9.808,9.808,0,0,1,4.326-8.518,12.677,12.677,0,0,1,6.883-1.634,21.974,21.974,0,0,1,3.96.441,12.6,12.6,0,0,0,2.1.258c.258.029.315.128.315.233a32.524,32.524,0,0,0-.176,3.681c0,.412-.057.54-.231.54-.134,0-.161-.154-.176-.386a3.968,3.968,0,0,0-.548-1.711c-.643-.98-2.74-2.1-6.086-2.1a7.406,7.406,0,0,0-8.095,8.285,10.535,10.535,0,0,0,2.749,7.17A9.42,9.42,0,0,0,133.51,27a7,7,0,0,0,2.95-.548.931.931,0,0,0,.52-.9Z" transform="translate(101.192 6.484)" fill="#fff"/>
        <path id="Контур_76" data-name="Контур 76" d="M139.989,15.606c0-4.036,0-4.767-.055-5.593-.049-.879-.258-1.289-1.114-1.472a4.427,4.427,0,0,0-.881-.077c-.1,0-.209-.057-.209-.156,0-.159.132-.211.414-.211,1.17,0,2.8.077,2.93.077.176,0,5.333,0,5.93-.027a7.1,7.1,0,0,0,1.114-.126c.128-.029.231-.134.353-.134.075,0,.1.1.1.236,0,.176-.134.491-.211,1.212-.022.26-.077,1.408-.126,1.711-.029.128-.077.288-.176.288-.156,0-.212-.134-.212-.337a2.7,2.7,0,0,0-.152-.932c-.176-.414-.436-.729-1.837-.879-.443-.049-3.26-.079-3.548-.079-.1,0-.152.079-.152.26v7.143c0,.176.027.258.152.258.337,0,3.52,0,4.115-.049.625-.055.989-.1,1.22-.364.176-.2.288-.335.385-.335s.132.057.132.209-.132.6-.209,1.445c-.049.52-.106,1.478-.106,1.661s0,.491-.176.491c-.134,0-.176-.1-.176-.231a2.606,2.606,0,0,0-.106-.855c-.1-.363-.335-.806-1.346-.9-.7-.079-3.258-.134-3.7-.134a.164.164,0,0,0-.176.147v2.309c0,.879-.027,3.884,0,4.43.077,1.78.471,2.123,2.993,2.123a7.38,7.38,0,0,0,2.489-.286c.674-.288.982-.806,1.163-1.866.055-.288.1-.385.231-.385.161,0,.161.2.161.385s-.209,1.969-.337,2.509c-.176.672-.392.672-1.407.672-3.912,0-5.643-.154-6.394-.154-.057,0-.493.027-1.037.027-.518.022-1.115.049-1.5.049-.289,0-.416-.049-.416-.2,0-.079.051-.163.205-.163a3.953,3.953,0,0,0,.777-.1c.52-.1.646-.672.753-1.423.132-1.093.132-3.132.132-5.621Z" transform="translate(114.516 6.558)" fill="#fff"/>
        <path id="Контур_77" data-name="Контур 77" d="M.385,27.386C.02,27.21,0,27.105,0,26.4c0-1.3.1-2.328.126-2.747.027-.28.077-.414.209-.414s.176.077.176.288a4.682,4.682,0,0,0,.077.96,3.521,3.521,0,0,0,3.828,2.641A3.452,3.452,0,0,0,8.1,23.937c.005-.082.007-.167.007-.249,0-1.787-.751-2.815-2.972-4.661l-1.17-.954C1.227,15.815.6,14.21.6,12.452c0-2.769,2.075-4.663,5.364-4.663a10.03,10.03,0,0,1,2.4.262,4.352,4.352,0,0,0,.91.134c.2,0,.258.049.258.176s-.1.982-.1,2.74c0,.414-.057.6-.176.6-.156,0-.176-.128-.211-.337a4.246,4.246,0,0,0-.335-1.3C8.562,9.784,7.87,8.7,5.485,8.7a2.945,2.945,0,0,0-3.179,2.687,2.845,2.845,0,0,0-.011.306c0,1.478.729,2.355,3.168,4.351l.722.57c3.057,2.4,3.786,4.009,3.786,6.084a5.364,5.364,0,0,1-2.2,4.3,6.811,6.811,0,0,1-3.91,1.086,7.874,7.874,0,0,1-3.474-.69" transform="translate(0 6.476)" fill="#fff"/>
        <path id="Контур_78" data-name="Контур 78" d="M19.947,20.215c0,2.489,0,4.535.126,5.621.077.751.231,1.319,1.009,1.425.364.048.932.1,1.165.1.154,0,.211.077.211.156,0,.126-.134.2-.414.2-1.421,0-3.057-.077-3.189-.077s-1.76.077-2.537.077c-.28,0-.414-.049-.414-.2,0-.079.057-.156.211-.156a4.3,4.3,0,0,0,.778-.1c.527-.106.643-.674.749-1.425.126-1.086.126-3.132.126-5.621V9.265l-3.828.049c-1.6.029-2.229.211-2.639.828a4.2,4.2,0,0,0-.441.806c-.077.2-.156.258-.258.258-.079,0-.128-.077-.128-.231,0-.258.52-2.489.57-2.69.049-.161.152-.5.258-.5a4.977,4.977,0,0,0,1.135.315c.756.077,1.738.126,2.046.126h9.71A14.14,14.14,0,0,0,26.039,8.1a6.446,6.446,0,0,1,.723-.134c.125,0,.125.156.125.315,0,.771-.077,2.559-.077,2.846,0,.231-.079.335-.176.335s-.178-.077-.2-.441l-.027-.286c-.106-.771-.705-1.368-3.185-1.423L19.96,9.265Z" transform="translate(8.709 6.475)" fill="#fff"/>
        <path id="Контур_79" data-name="Контур 79" d="M34.462,7.788c5.826,0,10.172,3.679,10.172,9.708a10.16,10.16,0,0,1-9.716,10.586c-.205.009-.41.011-.615.007a9.709,9.709,0,0,1-10.051-9.355q-.016-.412.005-.824A10.029,10.029,0,0,1,34.194,7.788c.09,0,.178,0,.267,0M35,27.107c2.333,0,7.15-1.346,7.15-8.882,0-6.218-3.786-9.555-7.872-9.555-4.326,0-7.568,2.846-7.568,8.516.005,6.036,3.628,9.921,8.287,9.921Z" transform="translate(20.158 6.474)" fill="#fff"/>
        <path id="Контур_80" data-name="Контур 80" d="M44.275,24.207c.049,2.124.31,2.8,1.011,2.993a5.586,5.586,0,0,0,1.289.161c.134,0,.211.049.211.156,0,.154-.154.2-.462.2-1.48,0-2.518-.077-2.749-.077s-1.319.077-2.489.077c-.253,0-.412-.022-.412-.2,0-.106.075-.156.209-.156a3.621,3.621,0,0,0,1.055-.161c.656-.178.782-.934.782-3.287L42.747,9.08c0-1.009.075-1.3.278-1.3s.652.575.914.833c.385.436,4.238,4.606,8.229,8.875,2.564,2.747,5.388,5.9,6.216,6.758L58.1,11.1c-.027-1.681-.2-2.249-1.011-2.463a6.732,6.732,0,0,0-1.269-.126c-.174,0-.211-.079-.211-.176,0-.156.211-.176.52-.176,1.17,0,2.41.077,2.69.077s1.143-.077,2.2-.077c.288,0,.469.027.469.176,0,.1-.106.176-.288.176a2.216,2.216,0,0,0-.619.077c-.853.176-.958.749-.958,2.306l-.049,15.168c0,1.711-.053,1.837-.238,1.837s-.518-.28-1.886-1.654c-.288-.258-4.016-4.066-6.754-7.016-3.009-3.238-5.932-6.5-6.756-7.43Z" transform="translate(33.818 6.472)" fill="#fff"/>
        <path id="Контур_81" data-name="Контур 81" d="M60.132,15.588c0-4.036,0-4.751-.057-5.6-.049-.879-.258-1.289-1.114-1.471a4.427,4.427,0,0,0-.881-.077c-.1,0-.209-.057-.209-.156,0-.161.132-.211.412-.211,1.172,0,2.8.077,2.93.077.176,0,5.333,0,5.93-.027A6.461,6.461,0,0,0,68.253,8c.134-.027.236-.126.366-.126.077,0,.1.1.1.231,0,.176-.134.491-.211,1.212-.022.258-.075,1.408-.125,1.711-.029.134-.081.289-.176.289-.156,0-.212-.134-.212-.337a2.7,2.7,0,0,0-.152-.932c-.176-.414-.436-.729-1.839-.879-.441-.049-3.258-.079-3.548-.079-.1,0-.152.079-.152.258v7.144c0,.176.027.258.152.258.337,0,3.52,0,4.117-.049s.989-.106,1.218-.364c.176-.2.288-.335.386-.335s.132.055.132.211-.132.6-.209,1.45c-.049.518-.106,1.471-.106,1.654,0,.211,0,.491-.176.491-.134,0-.176-.1-.176-.231a2.6,2.6,0,0,0-.106-.855c-.1-.364-.335-.8-1.346-.9-.7-.077-3.258-.134-3.7-.134a.164.164,0,0,0-.176.147v2.309c0,.879-.027,3.884,0,4.43.077,1.787.463,2.123,2.993,2.123a7.364,7.364,0,0,0,2.487-.286c.674-.289.983-.8,1.165-1.866.057-.288.106-.385.231-.385.163,0,.163.2.163.385,0,.211-.211,1.969-.337,2.509-.176.672-.392.672-1.408.672-3.91,0-5.641-.154-6.394-.154-.055,0-.491.027-1.037.027-.527.029-1.115.049-1.5.049-.289,0-.416-.049-.416-.2,0-.079.051-.156.2-.156a4.125,4.125,0,0,0,.778-.106c.52-.1.645-.672.751-1.423.132-1.086.132-3.132.132-5.621Z" transform="translate(48.117 6.547)" fill="#fff"/>
        <path id="Контур_82" data-name="Контур 82" d="M72.208,15.495c0-4.038,0-4.753-.049-5.6-.055-.881-.258-1.289-1.112-1.471a4.582,4.582,0,0,0-.881-.079c-.1,0-.2-.055-.2-.152,0-.163.126-.212.412-.212,1.165,0,2.8.079,2.923.079.625,0,1.634-.079,2.824-.079,4.24,0,5.172,2.588,5.172,3.884a6.512,6.512,0,0,1-2.432,4.663,6.043,6.043,0,0,1,4.48,5.454c0,2.769-2.172,5.643-6.6,5.643-.6,0-3.232-.156-3.441-.156-.125,0-1.76.079-2.537.079-.288,0-.414-.049-.414-.205,0-.077.049-.152.212-.152a4.2,4.2,0,0,0,.769-.106c.52-.106.652-.672.753-1.423.132-1.086.132-3.134.132-5.621Zm2.07.568a.256.256,0,0,0,.176.288,9,9,0,0,0,1.584.1c1.443,0,1.808-.055,2.355-.672a4.038,4.038,0,0,0,.932-2.615c0-2.152-.961-4.458-3.5-4.458a5.9,5.9,0,0,0-1.244.132c-.24.049-.315.128-.315.288Zm0,2.747c0,1.991,0,5.2.026,5.593.079,1.269.079,1.626.881,2.018a6.034,6.034,0,0,0,2.276.385,3.455,3.455,0,0,0,3.656-3.242,3.752,3.752,0,0,0,0-.43A6.2,6.2,0,0,0,78.6,17.953a4.26,4.26,0,0,0-2.145-.749c-.337-.049-1.634-.049-2.018-.049-.106,0-.163.049-.163.176Z" transform="translate(58.171 6.64)" fill="#fff"/>
        <rect id="Прямоугольник_13" data-name="Прямоугольник 13" width="235.088" height="0.397" transform="translate(13.655 48.153)" fill="#fff"/>
        <rect id="Прямоугольник_14" data-name="Прямоугольник 14" width="235.09" height="0.397" transform="translate(13.667 0.001)" fill="#fff"/>
    </g>
</svg>
